<?xml version="1.0" encoding="UTF-8"?>
<!-- Generator: visioncortex VTracer -->
<svg id="svg" version="1.1" xmlns="http://www.w3.org/2000/svg" style="display: block;" viewBox="0 0 500 500"><path d="M0 0 C2.31 0 4.62 0 7 0 C8.98 0.99 10.96 1.98 13 3 C14.65 4.98 16.3 6.96 18 9 C18.33 10.32 18.66 11.64 19 13 C19.33 18.94 19.66 24.88 20 31 C24.29 27.7 28.58 24.4 33 21 C35.64 19.68 38.28 18.36 41 17 C43.64 17 46.28 17 49 17 C51.31 18.32 53.62 19.64 56 21 C56.99 22.65 57.98 24.3 59 26 C59.33 28.97 59.66 31.94 60 35 C58.515 38.465 58.515 38.465 57 42 C50.07 47.445 50.07 47.445 43 53 C34.09 59.93 34.09 59.93 25 67 C23.35 68.32 21.7 69.64 20 71 C20 83.54 20 96.08 20 109 C24.62 105.37 29.24 101.74 34 98 C39.28 93.71 44.56 89.42 50 85 C52.31 83.68 54.62 82.36 57 81 C60.465 80.505 60.465 80.505 64 80 C66.31 80.66 68.62 81.32 71 82 C72.65 83.98 74.3 85.96 76 88 C76.33 88.66 76.66 89.32 77 90 C77 93.96 77 97.92 77 102 C75.35 103.98 73.7 105.96 72 108 C67.38 111.63 62.76 115.26 58 119 C52.72 123.29 47.44 127.58 42 132 C36.39 136.29 30.78 140.58 25 145 C22.525 146.98 22.525 146.98 20 149 C20 166.49 20 183.98 20 202 C64.55 157.45 64.55 157.45 110 112 C109.34 106.72 108.68 101.44 108 96 C106.02 83.79 104.04 71.58 102 59 C102 56.69 102 54.38 102 52 C103.485 48.535 103.485 48.535 105 45 C106.32 43.68 107.64 42.36 109 41 C110.485 40.505 110.485 40.505 112 40 C115.3 40 118.6 40 122 40 C124.31 41.32 126.62 42.64 129 44 C129.99 45.65 130.98 47.3 132 49 C133.98 60.55 135.96 72.1 138 84 C145.92 76.08 153.84 68.16 162 60 C163.65 59.34 165.3 58.68 167 58 C169.97 58 172.94 58 176 58 C178.31 59.32 180.62 60.64 183 62 C183.99 63.65 184.98 65.3 186 67 C186 70.96 186 74.92 186 79 C184.02 81.64 182.04 84.28 180 87 C174.72 92.28 169.44 97.56 164 103 C164 103.33 164 103.66 164 104 C172.58 104.99 181.16 105.98 190 107 C192.31 107.99 194.62 108.98 197 110 C198.65 111.98 200.3 113.96 202 116 C202.33 116.99 202.66 117.98 203 119 C203 121.31 203 123.62 203 126 C201.515 128.97 201.515 128.97 200 132 C198.02 133.65 196.04 135.3 194 137 C192.02 137.33 190.04 137.66 188 138 C173.15 136.35 158.3 134.7 143 133 C139.7 133 136.4 133 133 133 C103.63 162.37 74.26 191.74 44 222 C65.78 222.495 65.78 222.495 88 223 C88.66 221.68 89.32 220.36 90 219 C94.62 212.73 99.24 206.46 104 200 C110.93 191.09 110.93 191.09 118 182 C120.97 178.04 123.94 174.08 127 170 C128.32 168.35 129.64 166.7 131 165 C132.98 164.01 134.96 163.02 137 162 C139.97 162 142.94 162 146 162 C147.98 163.32 149.96 164.64 152 166 C153.98 168.97 153.98 168.97 156 172 C156 175.63 156 179.26 156 183 C152.04 188.28 148.08 193.56 144 199 C138.72 205.93 133.44 212.86 128 220 C127.67 220.66 127.34 221.32 127 222 C139.54 222 152.08 222 165 222 C170.28 215.07 175.56 208.14 181 201 C185.95 194.07 185.95 194.07 191 187 C192.98 185.35 194.96 183.7 197 182 C199.97 181.34 202.94 180.68 206 180 C208.64 180.99 211.28 181.98 214 183 C215.98 185.475 215.98 185.475 218 188 C218.33 188.99 218.66 189.98 219 191 C219 194.3 219 197.6 219 201 C217.02 203.97 215.04 206.94 213 210 C210.03 213.96 207.06 217.92 204 222 C211.26 222.33 218.52 222.66 226 223 C227.98 224.32 229.96 225.64 232 227 C233.98 229.97 233.98 229.97 236 233 C236.33 235.31 236.66 237.62 237 240 C235.515 243.465 235.515 243.465 234 247 C232.35 248.65 230.7 250.3 229 252 C228.01 252.33 227.02 252.66 226 253 C215.605 253.99 215.605 253.99 205 255 C209.29 260.94 213.58 266.88 218 273 C218.33 273.66 218.66 274.32 219 275 C219 277.64 219 280.28 219 283 C218.01 284.98 217.02 286.96 216 289 C214.02 290.65 212.04 292.3 210 294 C207.69 294.33 205.38 294.66 203 295 C200.69 294.34 198.38 293.68 196 293 C194.35 291.68 192.7 290.36 191 289 C188.03 285.04 185.06 281.08 182 277 C177.71 271.39 173.42 265.78 169 260 C167.68 258.35 166.36 256.7 165 255 C165 254.34 165 253.68 165 253 C152.13 253 139.26 253 126 253 C129.3 257.29 132.6 261.58 136 266 C141.445 272.93 141.445 272.93 147 280 C150.465 284.95 150.465 284.95 154 290 C154.66 291.65 155.32 293.3 156 295 C155.67 297.97 155.34 300.94 155 304 C153.02 306.31 151.04 308.62 149 311 C145.7 311.66 142.4 312.32 139 313 C136.69 312.34 134.38 311.68 132 311 C129.69 308.36 127.38 305.72 125 303 C120.71 297.39 116.42 291.78 112 286 C107.71 280.72 103.42 275.44 99 270 C95.7 265.71 92.4 261.42 89 257 C88.34 256.01 87.68 255.02 87 254 C70.83 254 54.66 254 38 254 C68.69 284.69 99.38 315.38 131 347 C135.62 346.34 140.24 345.68 145 345 C156.55 343.02 168.1 341.04 180 339 C184.29 339 188.58 339 193 339 C194.98 340.32 196.96 341.64 199 343 C199.99 344.32 200.98 345.64 202 347 C202.33 349.97 202.66 352.94 203 356 C201.515 359.465 201.515 359.465 200 363 C198.02 364.65 196.04 366.3 194 368 C183.11 369.98 172.22 371.96 161 374 C160.34 374.33 159.68 374.66 159 375 C166.92 382.92 174.84 390.84 183 399 C183.66 400.65 184.32 402.3 185 404 C185 406.97 185 409.94 185 413 C183.68 415.31 182.36 417.62 181 420 C179.35 420.99 177.7 421.98 176 423 C172.04 423 168.08 423 164 423 C161.36 421.02 158.72 419.04 156 417 C150.72 411.72 145.44 406.44 140 401 C139.34 405.62 138.68 410.24 138 415 C137.34 419.95 136.68 424.9 136 430 C134.68 432.31 133.36 434.62 132 437 C130.35 437.99 128.7 438.98 127 440 C123.37 440 119.74 440 116 440 C114.35 439.01 112.7 438.02 111 437 C109.68 435.35 108.36 433.7 107 432 C106.67 431.34 106.34 430.68 106 430 C106 427.03 106 424.06 106 421 C107.32 407.8 108.64 394.6 110 381 C110 377.37 110 373.74 110 370 C80.3 340.3 50.6 310.6 20 280 C20 292.87 20 305.74 20 319 C26.435 323.95 26.435 323.95 33 329 C38.28 333.29 43.56 337.58 49 342 C53.62 345.63 58.24 349.26 63 353 C67.62 356.63 72.24 360.26 77 364 C77.66 365.32 78.32 366.64 79 368 C79 371.63 79 375.26 79 379 C78.01 380.65 77.02 382.3 76 384 C74.35 385.32 72.7 386.64 71 388 C70.34 388.33 69.68 388.66 69 389 C66.36 389 63.72 389 61 389 C58.36 387.68 55.72 386.36 53 385 C47.39 380.38 41.78 375.76 36 371 C30.72 367.04 25.44 363.08 20 359 C20 371.54 20 384.08 20 397 C24.62 400.63 29.24 404.26 34 408 C42.91 414.93 42.91 414.93 52 422 C55.96 425.465 55.96 425.465 60 429 C60.66 430.98 61.32 432.96 62 435 C61.67 437.64 61.34 440.28 61 443 C59.68 444.98 58.36 446.96 57 449 C55.35 449.99 53.7 450.98 52 452 C48.7 452 45.4 452 42 452 C40.02 451.01 38.04 450.02 36 449 C31.38 445.37 26.76 441.74 22 438 C21.01 437.34 20.02 436.68 19 436 C19 441.28 19 446.56 19 452 C18.01 454.31 17.02 456.62 16 459 C14.02 460.65 12.04 462.3 10 464 C6.7 464.33 3.4 464.66 0 465 C-1.98 464.01 -3.96 463.02 -6 462 C-7.65 460.02 -9.3 458.04 -11 456 C-11.33 454.68 -11.66 453.36 -12 452 C-12 446.39 -12 440.78 -12 435 C-18.27 439.62 -24.54 444.24 -31 449 C-32.65 449.99 -34.3 450.98 -36 452 C-38.97 452 -41.94 452 -45 452 C-47.64 450.35 -50.28 448.7 -53 447 C-53.99 445.02 -54.98 443.04 -56 441 C-56 438.69 -56 436.38 -56 434 C-54.68 431.36 -53.36 428.72 -52 426 C-46.06 421.38 -40.12 416.76 -34 412 C-24.595 405.07 -24.595 405.07 -15 398 C-14.01 397.67 -13.02 397.34 -12 397 C-12 383.8 -12 370.6 -12 357 C-17.28 360.96 -22.56 364.92 -28 369 C-34.93 374.445 -34.93 374.445 -42 380 C-47.445 383.96 -47.445 383.96 -53 388 C-55.64 388.33 -58.28 388.66 -61 389 C-64.465 387.515 -64.465 387.515 -68 386 C-69.65 384.35 -71.3 382.7 -73 381 C-73.33 380.34 -73.66 379.68 -74 379 C-74 375.7 -74 372.4 -74 369 C-72.68 366.69 -71.36 364.38 -70 362 C-64.06 357.38 -58.12 352.76 -52 348 C-47.71 344.7 -43.42 341.4 -39 338 C-33.06 333.38 -27.12 328.76 -21 324 C-18.36 322.02 -15.72 320.04 -13 318 C-13 305.13 -13 292.26 -13 279 C-33.46 299.46 -53.92 319.92 -75 341 C-77.64 343.31 -80.28 345.62 -83 348 C-89.27 354.27 -95.54 360.54 -102 367 C-99.69 383.17 -97.38 399.34 -95 416 C-95 420.95 -95 425.9 -95 431 C-96.32 432.98 -97.64 434.96 -99 437 C-101.475 438.485 -101.475 438.485 -104 440 C-107.3 440 -110.6 440 -114 440 C-116.97 438.515 -116.97 438.515 -120 437 C-121.32 435.35 -122.64 433.7 -124 432 C-125.65 421.11 -127.3 410.22 -129 399 C-129.33 397.68 -129.66 396.36 -130 395 C-138.58 403.58 -147.16 412.16 -156 421 C-157.65 421.66 -159.3 422.32 -161 423 C-163.31 423 -165.62 423 -168 423 C-170.64 421.68 -173.28 420.36 -176 419 C-177.32 416.36 -178.64 413.72 -180 411 C-180 408.69 -180 406.38 -180 404 C-179.01 402.02 -178.02 400.04 -177 398 C-173.04 394.04 -173.04 394.04 -169 390 C-165.535 386.04 -165.535 386.04 -162 382 C-157.545 378.04 -157.545 378.04 -153 374 C-168.345 372.02 -168.345 372.02 -184 370 C-187.96 368.515 -187.96 368.515 -192 367 C-193.65 365.35 -195.3 363.7 -197 362 C-197.66 360.02 -198.32 358.04 -199 356 C-198.67 353.36 -198.34 350.72 -198 348 C-196.02 345.69 -194.04 343.38 -192 341 C-190.68 340.34 -189.36 339.68 -188 339 C-185.36 339 -182.72 339 -180 339 C-164.49 340.98 -148.98 342.96 -133 345 C-130.03 345 -127.06 345 -124 345 C-93.97 314.97 -63.94 284.94 -33 254 C-48.51 254 -64.02 254 -80 254 C-84.29 259.28 -88.58 264.56 -93 270 C-96.3 274.29 -99.6 278.58 -103 283 C-107.62 288.94 -112.24 294.88 -117 301 C-121.455 306.445 -121.455 306.445 -126 312 C-128.31 312.99 -130.62 313.98 -133 315 C-136.3 314.34 -139.6 313.68 -143 313 C-144.98 311.35 -146.96 309.7 -149 308 C-149.66 305.03 -150.32 302.06 -151 299 C-150.01 296.03 -149.02 293.06 -148 290 C-144.37 285.38 -140.74 280.76 -137 276 C-133.37 271.38 -129.74 266.76 -126 262 C-124.02 259.36 -122.04 256.72 -120 254 C-132.54 254 -145.08 254 -158 254 C-164.435 262.415 -164.435 262.415 -171 271 C-175.29 276.61 -179.58 282.22 -184 288 C-185.32 289.65 -186.64 291.3 -188 293 C-189.65 293.99 -191.3 294.98 -193 296 C-195.64 296.33 -198.28 296.66 -201 297 C-203.31 296.01 -205.62 295.02 -208 294 C-209.32 292.35 -210.64 290.7 -212 289 C-212.66 287.35 -213.32 285.7 -214 284 C-214 281.69 -214 279.38 -214 277 C-212.02 274.03 -210.04 271.06 -208 268 C-204.37 263.38 -200.74 258.76 -197 254 C-204.26 253.67 -211.52 253.34 -219 253 C-220.65 252.01 -222.3 251.02 -224 250 C-225.98 247.525 -225.98 247.525 -228 245 C-228.33 244.34 -228.66 243.68 -229 243 C-229 239.7 -229 236.4 -229 233 C-227.68 231.02 -226.36 229.04 -225 227 C-223.68 226.01 -222.36 225.02 -221 224 C-220.01 223.67 -219.02 223.34 -218 223 C-210.74 223 -203.48 223 -196 223 C-199.3 218.38 -202.6 213.76 -206 209 C-208.31 205.7 -210.62 202.4 -213 199 C-213 195.7 -213 192.4 -213 189 C-211.68 186.69 -210.36 184.38 -209 182 C-207.35 181.01 -205.7 180.02 -204 179 C-201.36 178.67 -198.72 178.34 -196 178 C-193.36 179.32 -190.72 180.64 -188 182 C-185.69 184.64 -183.38 187.28 -181 190 C-176.38 196.27 -171.76 202.54 -167 209 C-164.03 212.96 -161.06 216.92 -158 221 C-158 221.66 -158 222.32 -158 223 C-145.13 222.67 -132.26 222.34 -119 222 C-123.29 216.39 -127.58 210.78 -132 205 C-139.92 194.605 -139.92 194.605 -148 184 C-148.66 183.01 -149.32 182.02 -150 181 C-150 177.37 -150 173.74 -150 170 C-148.02 167.03 -148.02 167.03 -146 164 C-144.02 162.68 -142.04 161.36 -140 160 C-137.03 160 -134.06 160 -131 160 C-128.69 161.32 -126.38 162.64 -124 164 C-120.04 168.95 -116.08 173.9 -112 179 C-105.07 188.405 -105.07 188.405 -98 198 C-93.38 203.94 -88.76 209.88 -84 216 C-82.02 218.97 -82.02 218.97 -80 222 C-66.14 222 -52.28 222 -38 222 C-66.38 193.62 -94.76 165.24 -124 136 C-132.415 136.99 -132.415 136.99 -141 138 C-153.87 139.98 -166.74 141.96 -180 144 C-183.3 143.34 -186.6 142.68 -190 142 C-191.65 140.68 -193.3 139.36 -195 138 C-195.66 136.35 -196.32 134.7 -197 133 C-197 130.03 -197 127.06 -197 124 C-195.35 121.36 -193.7 118.72 -192 116 C-189.03 115.01 -186.06 114.02 -183 113 C-172.77 111.35 -162.54 109.7 -152 108 C-160.91 99.09 -169.82 90.18 -179 81 C-179.33 80.01 -179.66 79.02 -180 78 C-180 74.37 -180 70.74 -180 67 C-178.68 65.02 -177.36 63.04 -176 61 C-174.35 60.01 -172.7 59.02 -171 58 C-167.37 58 -163.74 58 -160 58 C-158.02 59.32 -156.04 60.64 -154 62 C-146.74 69.26 -139.48 76.52 -132 84 C-130.68 73.44 -129.36 62.88 -128 52 C-127.01 49.36 -126.02 46.72 -125 44 C-123.02 42.35 -121.04 40.7 -119 39 C-114.05 38.505 -114.05 38.505 -109 38 C-107.02 38.99 -105.04 39.98 -103 41 C-101.35 42.98 -99.7 44.96 -98 47 C-97.67 49.64 -97.34 52.28 -97 55 C-98.98 72.16 -100.96 89.32 -103 107 C-103 108.98 -103 110.96 -103 113 C-73.3 142.7 -43.6 172.4 -13 203 C-13 185.18 -13 167.36 -13 149 C-17.95 145.04 -22.9 141.08 -28 137 C-32.29 133.7 -36.58 130.4 -41 127 C-47.435 122.05 -47.435 122.05 -54 117 C-60.435 112.05 -60.435 112.05 -67 107 C-68.65 104.69 -70.3 102.38 -72 100 C-72 96.7 -72 93.4 -72 90 C-71.01 88.35 -70.02 86.7 -69 85 C-67.35 83.68 -65.7 82.36 -64 81 C-63.34 80.67 -62.68 80.34 -62 80 C-58.7 80 -55.4 80 -52 80 C-49.03 81.98 -46.06 83.96 -43 86 C-38.05 89.96 -33.1 93.92 -28 98 C-23.05 101.63 -18.1 105.26 -13 109 C-12.67 96.13 -12.34 83.26 -12 70 C-13.32 69.34 -14.64 68.68 -16 68 C-22.27 63.38 -28.54 58.76 -35 54 C-41.93 48.555 -41.93 48.555 -49 43 C-50.98 40.525 -50.98 40.525 -53 38 C-53.33 37.01 -53.66 36.02 -54 35 C-54 32.69 -54 30.38 -54 28 C-53.01 26.02 -52.02 24.04 -51 22 C-49.02 20.35 -47.04 18.7 -45 17 C-41.7 16.67 -38.4 16.34 -35 16 C-32.69 17.32 -30.38 18.64 -28 20 C-23.05 23.63 -18.1 27.26 -13 31 C-12.67 25.06 -12.34 19.12 -12 13 C-11.01 10.69 -10.02 8.38 -9 6 C-7.02 4.35 -5.04 2.7 -3 1 C-2.01 0.67 -1.02 0.34 0 0 Z " transform="translate(245,18)" style="fill: #6499CE;"/></svg>